<?xml version="1.0" encoding="utf-8"?>
<svg width="993" height="1016" viewBox="0 0 993 1016" fill="none" xmlns="http://www.w3.org/2000/svg">
  <path id="Shape" d="M748.713 139.976C748.713 139.976 748.614 140.009 748.614 140.009C726.098 153.023 698.305 153.023 675.788 140.009C653.272 127.028 639.375 102.966 639.375 76.9379C639.375 76.9379 639.375 76.8395 639.375 76.8395C639.375 56.4495 631.28 36.9118 616.859 22.488C602.47 8.097 582.937 0 562.55 0C514.142 0 436.858 0 388.45 0C368.063 0 348.53 8.097 334.141 22.488C319.72 36.9118 311.625 56.4495 311.625 76.8395C311.625 76.8395 311.625 76.9379 311.625 76.9379C311.625 102.966 297.728 127.028 275.212 140.009C252.695 153.023 224.902 153.023 202.386 140.009C202.386 140.009 202.287 139.976 202.287 139.976C184.654 129.781 163.678 127.028 143.981 132.306C124.316 137.551 107.535 150.434 97.3418 168.103C73.1539 210.03 34.4793 276.97 10.2914 318.897C0.0983429 336.533 -2.65475 357.514 2.62202 377.215C7.8988 396.884 20.7794 413.668 38.4124 423.863C38.4124 423.863 38.5107 423.929 38.5107 423.929C61.0271 436.943 74.9237 460.972 74.9237 487C74.9237 513.028 61.0271 537.057 38.5107 550.071C38.5107 550.071 38.4123 550.137 38.4123 550.137C20.7794 560.332 7.89879 577.116 2.62201 596.785C-2.65477 616.486 0.0983429 637.466 10.2914 655.103C34.4793 697.03 73.1539 763.97 97.3418 805.897C107.535 823.566 124.316 836.449 143.981 841.694C163.678 846.972 184.654 844.218 202.287 834.023C202.287 834.023 202.386 833.991 202.386 833.991C224.902 820.977 252.695 820.977 275.212 833.991C297.728 846.972 311.625 871.034 311.625 897.062C311.625 897.062 311.625 897.16 311.625 897.16C311.625 917.55 319.72 937.088 334.141 951.512C348.53 965.903 368.063 974 388.45 974C436.858 974 514.142 974 562.55 974C582.936 974 602.47 965.903 616.859 951.512C631.28 937.088 639.375 917.551 639.375 897.16C639.375 897.16 639.375 897.062 639.375 897.062C639.375 871.034 653.272 846.972 675.788 833.991C698.305 820.977 726.098 820.977 748.614 833.991C748.614 833.991 748.713 834.023 748.713 834.023C766.346 844.219 787.322 846.972 807.019 841.694C826.684 836.449 843.465 823.566 853.658 805.897C877.846 763.97 916.521 697.03 940.709 655.103C950.902 637.466 953.655 616.486 948.378 596.785C943.101 577.116 930.221 560.332 912.588 550.137C912.588 550.137 912.489 550.071 912.489 550.071C889.973 537.057 876.076 513.028 876.076 487C876.076 460.972 889.973 436.943 912.489 423.929C912.489 423.929 912.588 423.863 912.588 423.863C930.221 413.668 943.101 396.884 948.378 377.215C953.655 357.514 950.902 336.533 940.709 318.897C916.521 276.97 877.846 210.03 853.658 168.103C843.465 150.434 826.684 137.551 807.019 132.306C787.322 127.028 766.346 129.781 748.713 139.976C748.713 139.976 748.713 139.976 748.713 139.976ZM475.5 257.53C348.89 257.53 246.075 360.365 246.075 487C246.075 613.634 348.89 716.469 475.5 716.469C602.11 716.469 704.926 613.634 704.926 487C704.926 360.365 602.11 257.53 475.5 257.53C475.5 257.53 475.5 257.53 475.5 257.53Z" fill="#FFFFFF" fill-rule="evenodd" fill-opacity="1.0000" transform="translate(21 21)" />
</svg>